STARTFONT 2.1
COMMENT This font is still under development.
COMMENT You can use, copy, modify, distribute this file for free.
COMMENT
COMMENT 99.2.20 created by K.Handa <handa@etl.go.jp>
FONT -ETL-Fixed-Bold-R-Normal--18-180-72-72-C-90-VISCII1.1-1
SIZE 18 72 72
FONTBOUNDINGBOX 9 18 0 -3
STARTPROPERTIES 18
FONTNAME_REGISTRY ""
FOUNDRY "ETL"
FAMILY_NAME "Fixed"
WEIGHT_NAME "Bold"
SLANT "R"
SETWIDTH_NAME "Normal"
ADD_STYLE_NAME ""
PIXEL_SIZE 18
POINT_SIZE 180
RESOLUTION_X 72
RESOLUTION_Y 72 
SPACING "C"
AVERAGE_WIDTH 80
CHARSET_REGISTRY "VISCII1.1"
CHARSET_ENCODING "1"
FONT_ASCENT 15
FONT_DESCENT 3
DEFAULT_CHAR 32
ENDPROPERTIES
CHARS 226
STARTCHAR c02
ENCODING 2
SWIDTH 500 0
DWIDTH 9 0
BBX 9 18 0 -3
BITMAP
0e00
0600
6d80
3f00
0000
1e00
3300
6180
6180
6180
7f80
6180
6180
6180
6180
0000
0000
0000
ENDCHAR
STARTCHAR c05
ENCODING 5
SWIDTH 500 0
DWIDTH 9 0
BBX 9 18 0 -3
BITMAP
1d00
2e00
6180
3f00
0000
1e00
3300
6180
6180
6180
7f80
6180
6180
6180
6180
0000
0000
0000
ENDCHAR
STARTCHAR c06
ENCODING 6
SWIDTH 500 0
DWIDTH 9 0
BBX 9 18 0 -3
BITMAP
1d00
2e00
0000
3f00
6180
1e00
3300
6180
6180
6180
7f80
6180
6180
6180
6180
0000
0000
0000
ENDCHAR
STARTCHAR SPACE
ENCODING 32
SWIDTH 500 0
DWIDTH 9 0
BBX 9 18 0 -3
BITMAP
0000
0000
0000
0000
0000
0000
0000
0000
0000
0000
0000
0000
0000
0000
0000
0000
0000
0000
ENDCHAR
STARTCHAR EXCLAMATION
ENCODING 33
SWIDTH 500 0
DWIDTH 9 0
BBX 9 18 0 -3
BITMAP
0000
0000
0000
0000
0000
0c00
0c00
0c00
0c00
0c00
0c00
0c00
0000
0c00
0c00
0000
0000
0000
ENDCHAR
STARTCHAR QUOTATION
ENCODING 34
SWIDTH 500 0
DWIDTH 9 0
BBX 9 18 0 -3
BITMAP
0000
0000
0000
0000
3f00
3f00
1b00
3600
0000
0000
0000
0000
0000
0000
0000
0000
0000
0000
ENDCHAR
STARTCHAR NUMBER
ENCODING 35
SWIDTH 500 0
DWIDTH 9 0
BBX 9 18 0 -3
BITMAP
0000
0000
0000
0000
0000
1b00
1b00
1b00
7f80
3600
3600
ff00
6c00
6c00
6c00
0000
0000
0000
ENDCHAR
STARTCHAR DOLLAR
ENCODING 36
SWIDTH 500 0
DWIDTH 9 0
BBX 9 18 0 -3
BITMAP
0000
0000
0000
0000
0000
0c00
3f00
6d80
6c00
3c00
0f00
0d80
6d80
3f00
0c00
0000
0000
0000
ENDCHAR
STARTCHAR PERCENT
ENCODING 37
SWIDTH 500 0
DWIDTH 9 0
BBX 9 18 0 -3
BITMAP
0000
0000
0000
0000
0000
3980
6d80
6f00
3e00
0e00
1c00
1f00
3d80
6d80
6700
0000
0000
0000
ENDCHAR
STARTCHAR AMPERSAND
ENCODING 38
SWIDTH 500 0
DWIDTH 9 0
BBX 9 18 0 -3
BITMAP
0000
0000
0000
0000
0000
1c00
3600
3600
1c00
1800
3d80
6780
6700
6700
3d80
0000
0000
0000
ENDCHAR
STARTCHAR c27
ENCODING 39
SWIDTH 500 0
DWIDTH 9 0
BBX 9 18 0 -3
BITMAP
0000
0000
0000
0000
1c00
1c00
0c00
1800
0000
0000
0000
0000
0000
0000
0000
0000
0000
0000
ENDCHAR
STARTCHAR LEFT
ENCODING 40
SWIDTH 500 0
DWIDTH 9 0
BBX 9 18 0 -3
BITMAP
0000
0000
0000
0000
0300
0600
0c00
0c00
1800
1800
1800
1800
0c00
0c00
0600
0300
0000
0000
ENDCHAR
STARTCHAR RIGHT
ENCODING 41
SWIDTH 500 0
DWIDTH 9 0
BBX 9 18 0 -3
BITMAP
0000
0000
0000
0000
6000
3000
1800
1800
0c00
0c00
0c00
0c00
1800
1800
3000
6000
0000
0000
ENDCHAR
STARTCHAR ASTERISK
ENCODING 42
SWIDTH 500 0
DWIDTH 9 0
BBX 9 18 0 -3
BITMAP
0000
0000
0000
0000
0000
0000
0000
0c00
6d80
3f00
1e00
3f00
6d80
0c00
0000
0000
0000
0000
ENDCHAR
STARTCHAR PLUS
ENCODING 43
SWIDTH 500 0
DWIDTH 9 0
BBX 9 18 0 -3
BITMAP
0000
0000
0000
0000
0000
0000
0000
0c00
0c00
0c00
7f80
0c00
0c00
0c00
0000
0000
0000
0000
ENDCHAR
STARTCHAR COMMA
ENCODING 44
SWIDTH 500 0
DWIDTH 9 0
BBX 9 18 0 -3
BITMAP
0000
0000
0000
0000
0000
0000
0000
0000
0000
0000
0000
0000
0000
1c00
1c00
0c00
1800
0000
ENDCHAR
STARTCHAR HYPHEN,
ENCODING 45
SWIDTH 500 0
DWIDTH 9 0
BBX 9 18 0 -3
BITMAP
0000
0000
0000
0000
0000
0000
0000
0000
0000
0000
7f80
0000
0000
0000
0000
0000
0000
0000
ENDCHAR
STARTCHAR FULL
ENCODING 46
SWIDTH 500 0
DWIDTH 9 0
BBX 9 18 0 -3
BITMAP
0000
0000
0000
0000
0000
0000
0000
0000
0000
0000
0000
0000
0000
1c00
1c00
0000
0000
0000
ENDCHAR
STARTCHAR c2f
ENCODING 47
SWIDTH 500 0
DWIDTH 9 0
BBX 9 18 0 -3
BITMAP
0000
0000
0000
0000
0180
0300
0300
0600
0600
0c00
0c00
1800
1800
3000
3000
6000
0000
0000
ENDCHAR
STARTCHAR DIGIT
ENCODING 48
SWIDTH 500 0
DWIDTH 9 0
BBX 9 18 0 -3
BITMAP
0000
0000
0000
0000
0000
1e00
3300
3300
6180
6180
6180
6180
3300
3300
1e00
0000
0000
0000
ENDCHAR
STARTCHAR DIGIT
ENCODING 49
SWIDTH 500 0
DWIDTH 9 0
BBX 9 18 0 -3
BITMAP
0000
0000
0000
0000
0000
0c00
1c00
3c00
0c00
0c00
0c00
0c00
0c00
0c00
3f00
0000
0000
0000
ENDCHAR
STARTCHAR DIGIT
ENCODING 50
SWIDTH 500 0
DWIDTH 9 0
BBX 9 18 0 -3
BITMAP
0000
0000
0000
0000
0000
1e00
3300
6180
6180
0300
0600
0c00
1800
3000
7f80
0000
0000
0000
ENDCHAR
STARTCHAR DIGIT
ENCODING 51
SWIDTH 500 0
DWIDTH 9 0
BBX 9 18 0 -3
BITMAP
0000
0000
0000
0000
0000
1e00
3300
6180
0180
0f00
0300
0180
6180
3300
1e00
0000
0000
0000
ENDCHAR
STARTCHAR DIGIT
ENCODING 52
SWIDTH 500 0
DWIDTH 9 0
BBX 9 18 0 -3
BITMAP
0000
0000
0000
0000
0000
0600
0e00
0e00
1e00
3e00
3600
6600
7f80
0600
0600
0000
0000
0000
ENDCHAR
STARTCHAR DIGIT
ENCODING 53
SWIDTH 500 0
DWIDTH 9 0
BBX 9 18 0 -3
BITMAP
0000
0000
0000
0000
0000
7f00
6000
6000
7e00
6300
0180
0180
0180
6300
3e00
0000
0000
0000
ENDCHAR
STARTCHAR DIGIT
ENCODING 54
SWIDTH 500 0
DWIDTH 9 0
BBX 9 18 0 -3
BITMAP
0000
0000
0000
0000
0000
0e00
1800
3000
7e00
7300
6180
6180
6180
3300
1e00
0000
0000
0000
ENDCHAR
STARTCHAR DIGIT
ENCODING 55
SWIDTH 500 0
DWIDTH 9 0
BBX 9 18 0 -3
BITMAP
0000
0000
0000
0000
0000
7f80
0180
0300
0300
0600
0600
0c00
0c00
0c00
0c00
0000
0000
0000
ENDCHAR
STARTCHAR DIGIT
ENCODING 56
SWIDTH 500 0
DWIDTH 9 0
BBX 9 18 0 -3
BITMAP
0000
0000
0000
0000
0000
1e00
3300
3300
1e00
3300
6180
6180
6180
3300
1e00
0000
0000
0000
ENDCHAR
STARTCHAR DIGIT
ENCODING 57
SWIDTH 500 0
DWIDTH 9 0
BBX 9 18 0 -3
BITMAP
0000
0000
0000
0000
0000
1e00
3300
6180
6180
6180
3380
1f80
0300
0600
1c00
0000
0000
0000
ENDCHAR
STARTCHAR COLON
ENCODING 58
SWIDTH 500 0
DWIDTH 9 0
BBX 9 18 0 -3
BITMAP
0000
0000
0000
0000
0000
0000
0000
0000
1c00
1c00
0000
0000
0000
1c00
1c00
0000
0000
0000
ENDCHAR
STARTCHAR SEMICOLON
ENCODING 59
SWIDTH 500 0
DWIDTH 9 0
BBX 9 18 0 -3
BITMAP
0000
0000
0000
0000
0000
0000
0000
0000
1c00
1c00
0000
0000
0000
1c00
1c00
0c00
1800
0000
ENDCHAR
STARTCHAR LESS-THAN
ENCODING 60
SWIDTH 500 0
DWIDTH 9 0
BBX 9 18 0 -3
BITMAP
0000
0000
0000
0000
0000
0000
0300
0600
0c00
1800
3000
1800
0c00
0600
0300
0000
0000
0000
ENDCHAR
STARTCHAR EQUALS
ENCODING 61
SWIDTH 500 0
DWIDTH 9 0
BBX 9 18 0 -3
BITMAP
0000
0000
0000
0000
0000
0000
0000
0000
7f80
0000
0000
0000
7f80
0000
0000
0000
0000
0000
ENDCHAR
STARTCHAR GREATER-THAN
ENCODING 62
SWIDTH 500 0
DWIDTH 9 0
BBX 9 18 0 -3
BITMAP
0000
0000
0000
0000
0000
0000
6000
3000
1800
0c00
0600
0c00
1800
3000
6000
0000
0000
0000
ENDCHAR
STARTCHAR QUESTION
ENCODING 63
SWIDTH 500 0
DWIDTH 9 0
BBX 9 18 0 -3
BITMAP
0000
0000
0000
0000
0000
1e00
3300
6180
6180
0300
0600
0c00
0c00
0000
0c00
0000
0000
0000
ENDCHAR
STARTCHAR COMMERCIAL
ENCODING 64
SWIDTH 500 0
DWIDTH 9 0
BBX 9 18 0 -3
BITMAP
0000
0000
0000
0000
0000
1f00
3180
6180
6f80
7b80
7980
7980
6f00
3000
1f80
0000
0000
0000
ENDCHAR
STARTCHAR CAPITAL
ENCODING 65
SWIDTH 500 0
DWIDTH 9 0
BBX 9 18 0 -3
BITMAP
0000
0000
0000
0000
0000
1e00
3300
6180
6180
6180
7f80
6180
6180
6180
6180
0000
0000
0000
ENDCHAR
STARTCHAR CAPITAL
ENCODING 66
SWIDTH 500 0
DWIDTH 9 0
BBX 9 18 0 -3
BITMAP
0000
0000
0000
0000
0000
7e00
6300
6180
6300
7e00
6300
6180
6180
6180
7f00
0000
0000
0000
ENDCHAR
STARTCHAR CAPITAL
ENCODING 67
SWIDTH 500 0
DWIDTH 9 0
BBX 9 18 0 -3
BITMAP
0000
0000
0000
0000
0000
1e00
3300
6180
6000
6000
6000
6000
6180
3300
1e00
0000
0000
0000
ENDCHAR
STARTCHAR CAPITAL
ENCODING 68
SWIDTH 500 0
DWIDTH 9 0
BBX 9 18 0 -3
BITMAP
0000
0000
0000
0000
0000
7e00
6300
6180
6180
6180
6180
6180
6180
6300
7e00
0000
0000
0000
ENDCHAR
STARTCHAR CAPITAL
ENCODING 69
SWIDTH 500 0
DWIDTH 9 0
BBX 9 18 0 -3
BITMAP
0000
0000
0000
0000
0000
7f80
6000
6000
6000
7f00
6000
6000
6000
6000
7f80
0000
0000
0000
ENDCHAR
STARTCHAR CAPITAL
ENCODING 70
SWIDTH 500 0
DWIDTH 9 0
BBX 9 18 0 -3
BITMAP
0000
0000
0000
0000
0000
7f80
6000
6000
6000
7f00
6000
6000
6000
6000
6000
0000
0000
0000
ENDCHAR
STARTCHAR CAPITAL
ENCODING 71
SWIDTH 500 0
DWIDTH 9 0
BBX 9 18 0 -3
BITMAP
0000
0000
0000
0000
0000
1e00
3300
6180
6000
6000
6780
6180
6180
3380
1f80
0000
0000
0000
ENDCHAR
STARTCHAR CAPITAL
ENCODING 72
SWIDTH 500 0
DWIDTH 9 0
BBX 9 18 0 -3
BITMAP
0000
0000
0000
0000
0000
6180
6180
6180
6180
7f80
6180
6180
6180
6180
6180
0000
0000
0000
ENDCHAR
STARTCHAR CAPITAL
ENCODING 73
SWIDTH 500 0
DWIDTH 9 0
BBX 9 18 0 -3
BITMAP
0000
0000
0000
0000
0000
3f00
0c00
0c00
0c00
0c00
0c00
0c00
0c00
0c00
3f00
0000
0000
0000
ENDCHAR
STARTCHAR CAPITAL
ENCODING 74
SWIDTH 500 0
DWIDTH 9 0
BBX 9 18 0 -3
BITMAP
0000
0000
0000
0000
0000
1f80
0600
0600
0600
0600
0600
0600
6600
6600
3c00
0000
0000
0000
ENDCHAR
STARTCHAR CAPITAL
ENCODING 75
SWIDTH 500 0
DWIDTH 9 0
BBX 9 18 0 -3
BITMAP
0000
0000
0000
0000
0000
6180
6300
6600
6c00
7800
7800
6c00
6600
6300
6180
0000
0000
0000
ENDCHAR
STARTCHAR CAPITAL
ENCODING 76
SWIDTH 500 0
DWIDTH 9 0
BBX 9 18 0 -3
BITMAP
0000
0000
0000
0000
0000
6000
6000
6000
6000
6000
6000
6000
6000
6000
7f80
0000
0000
0000
ENDCHAR
STARTCHAR CAPITAL
ENCODING 77
SWIDTH 500 0
DWIDTH 9 0
BBX 9 18 0 -3
BITMAP
0000
0000
0000
0000
0000
6180
6180
7380
7380
7f80
7f80
6d80
6d80
6180
6180
0000
0000
0000
ENDCHAR
STARTCHAR CAPITAL
ENCODING 78
SWIDTH 500 0
DWIDTH 9 0
BBX 9 18 0 -3
BITMAP
0000
0000
0000
0000
0000
6180
7180
7180
7980
6d80
6d80
6780
6380
6380
6180
0000
0000
0000
ENDCHAR
STARTCHAR CAPITAL
ENCODING 79
SWIDTH 500 0
DWIDTH 9 0
BBX 9 18 0 -3
BITMAP
0000
0000
0000
0000
0000
1e00
3300
6180
6180
6180
6180
6180
6180
3300
1e00
0000
0000
0000
ENDCHAR
STARTCHAR CAPITAL
ENCODING 80
SWIDTH 500 0
DWIDTH 9 0
BBX 9 18 0 -3
BITMAP
0000
0000
0000
0000
0000
7e00
6300
6180
6180
6300
7e00
6000
6000
6000
6000
0000
0000
0000
ENDCHAR
STARTCHAR CAPITAL
ENCODING 81
SWIDTH 500 0
DWIDTH 9 0
BBX 9 18 0 -3
BITMAP
0000
0000
0000
0000
0000
1e00
3300
6180
6180
6180
6180
6f80
7b80
3b00
1f80
0000
0000
0000
ENDCHAR
STARTCHAR CAPITAL
ENCODING 82
SWIDTH 500 0
DWIDTH 9 0
BBX 9 18 0 -3
BITMAP
0000
0000
0000
0000
0000
7e00
6300
6180
6180
6300
7e00
6c00
6600
6300
6180
0000
0000
0000
ENDCHAR
STARTCHAR CAPITAL
ENCODING 83
SWIDTH 500 0
DWIDTH 9 0
BBX 9 18 0 -3
BITMAP
0000
0000
0000
0000
0000
1e00
3300
6180
3000
1e00
0300
6180
6180
3300
1e00
0000
0000
0000
ENDCHAR
STARTCHAR CAPITAL
ENCODING 84
SWIDTH 500 0
DWIDTH 9 0
BBX 9 18 0 -3
BITMAP
0000
0000
0000
0000
0000
7f80
0c00
0c00
0c00
0c00
0c00
0c00
0c00
0c00
0c00
0000
0000
0000
ENDCHAR
STARTCHAR CAPITAL
ENCODING 85
SWIDTH 500 0
DWIDTH 9 0
BBX 9 18 0 -3
BITMAP
0000
0000
0000
0000
0000
6180
6180
6180
6180
6180
6180
6180
6180
3300
1e00
0000
0000
0000
ENDCHAR
STARTCHAR CAPITAL
ENCODING 86
SWIDTH 500 0
DWIDTH 9 0
BBX 9 18 0 -3
BITMAP
0000
0000
0000
0000
0000
6180
6180
6180
3300
3300
1e00
1e00
1e00
0c00
0c00
0000
0000
0000
ENDCHAR
STARTCHAR CAPITAL
ENCODING 87
SWIDTH 500 0
DWIDTH 9 0
BBX 9 18 0 -3
BITMAP
0000
0000
0000
0000
0000
6180
6180
6d80
6d80
7f80
7f80
7380
7380
6180
6180
0000
0000
0000
ENDCHAR
STARTCHAR CAPITAL
ENCODING 88
SWIDTH 500 0
DWIDTH 9 0
BBX 9 18 0 -3
BITMAP
0000
0000
0000
0000
0000
6180
3300
3300
1e00
0c00
0c00
1e00
3300
3300
6180
0000
0000
0000
ENDCHAR
STARTCHAR CAPITAL
ENCODING 89
SWIDTH 500 0
DWIDTH 9 0
BBX 9 18 0 -3
BITMAP
0000
0000
0000
0000
0000
6180
6180
3300
1e00
1e00
0c00
0c00
0c00
0c00
0c00
0000
0000
0000
ENDCHAR
STARTCHAR CAPITAL
ENCODING 90
SWIDTH 500 0
DWIDTH 9 0
BBX 9 18 0 -3
BITMAP
0000
0000
0000
0000
0000
7f80
0180
0300
0600
0c00
1800
3000
6000
6000
7f80
0000
0000
0000
ENDCHAR
STARTCHAR LEFT
ENCODING 91
SWIDTH 500 0
DWIDTH 9 0
BBX 9 18 0 -3
BITMAP
0000
0000
0000
0000
0f00
0c00
0c00
0c00
0c00
0c00
0c00
0c00
0c00
0c00
0c00
0f00
0000
0000
ENDCHAR
STARTCHAR REVERSE
ENCODING 92
SWIDTH 500 0
DWIDTH 9 0
BBX 9 18 0 -3
BITMAP
0000
0000
0000
0000
6000
3000
3000
1800
1800
0c00
0c00
0600
0600
0300
0300
0180
0000
0000
ENDCHAR
STARTCHAR RIGHT
ENCODING 93
SWIDTH 500 0
DWIDTH 9 0
BBX 9 18 0 -3
BITMAP
0000
0000
0000
0000
3c00
0c00
0c00
0c00
0c00
0c00
0c00
0c00
0c00
0c00
0c00
3c00
0000
0000
ENDCHAR
STARTCHAR CIRCUMFLEX
ENCODING 94
SWIDTH 500 0
DWIDTH 9 0
BBX 9 18 0 -3
BITMAP
0000
0000
0000
0c00
1e00
3300
0000
0000
0000
0000
0000
0000
0000
0000
0000
0000
0000
0000
ENDCHAR
STARTCHAR LOW
ENCODING 95
SWIDTH 500 0
DWIDTH 9 0
BBX 9 18 0 -3
BITMAP
0000
0000
0000
0000
0000
0000
0000
0000
0000
0000
0000
0000
0000
0000
0000
7f80
0000
0000
ENDCHAR
STARTCHAR GRAVE
ENCODING 96
SWIDTH 500 0
DWIDTH 9 0
BBX 9 18 0 -3
BITMAP
0000
0000
0000
0000
0e00
0e00
0c00
0600
0000
0000
0000
0000
0000
0000
0000
0000
0000
0000
ENDCHAR
STARTCHAR SMALL
ENCODING 97
SWIDTH 500 0
DWIDTH 9 0
BBX 9 18 0 -3
BITMAP
0000
0000
0000
0000
0000
0000
0000
0000
3f00
6380
0180
3f80
6180
6380
3d80
0000
0000
0000
ENDCHAR
STARTCHAR SMALL
ENCODING 98
SWIDTH 500 0
DWIDTH 9 0
BBX 9 18 0 -3
BITMAP
0000
0000
0000
0000
0000
6000
6000
6000
6e00
7300
6180
6180
6180
7300
6e00
0000
0000
0000
ENDCHAR
STARTCHAR SMALL
ENCODING 99
SWIDTH 500 0
DWIDTH 9 0
BBX 9 18 0 -3
BITMAP
0000
0000
0000
0000
0000
0000
0000
0000
1f00
3180
6000
6000
6000
3180
1f00
0000
0000
0000
ENDCHAR
STARTCHAR SMALL
ENCODING 100
SWIDTH 500 0
DWIDTH 9 0
BBX 9 18 0 -3
BITMAP
0000
0000
0000
0000
0000
0180
0180
0180
1d80
3380
6180
6180
6180
3380
1d80
0000
0000
0000
ENDCHAR
STARTCHAR SMALL
ENCODING 101
SWIDTH 500 0
DWIDTH 9 0
BBX 9 18 0 -3
BITMAP
0000
0000
0000
0000
0000
0000
0000
0000
3f00
6180
6180
7f80
6000
6180
3f00
0000
0000
0000
ENDCHAR
STARTCHAR SMALL
ENCODING 102
SWIDTH 500 0
DWIDTH 9 0
BBX 9 18 0 -3
BITMAP
0000
0000
0000
0000
0000
0700
0d80
0c00
0c00
3f00
0c00
0c00
0c00
0c00
0c00
0000
0000
0000
ENDCHAR
STARTCHAR SMALL
ENCODING 103
SWIDTH 500 0
DWIDTH 9 0
BBX 9 18 0 -3
BITMAP
0000
0000
0000
0000
0000
0000
0000
0180
1f80
3300
6180
3300
1e00
3000
3f00
6180
6180
3f00
ENDCHAR
STARTCHAR SMALL
ENCODING 104
SWIDTH 500 0
DWIDTH 9 0
BBX 9 18 0 -3
BITMAP
0000
0000
0000
0000
0000
6000
6000
6000
6e00
7300
6180
6180
6180
6180
6180
0000
0000
0000
ENDCHAR
STARTCHAR SMALL
ENCODING 105
SWIDTH 500 0
DWIDTH 9 0
BBX 9 18 0 -3
BITMAP
0000
0000
0000
0000
0000
0c00
0c00
0000
1c00
0c00
0c00
0c00
0c00
0c00
3f00
0000
0000
0000
ENDCHAR
STARTCHAR SMALL
ENCODING 106
SWIDTH 500 0
DWIDTH 9 0
BBX 9 18 0 -3
BITMAP
0000
0000
0000
0000
0000
0c00
0c00
0000
1c00
0c00
0c00
0c00
0c00
0c00
0c00
0c00
6c00
3800
ENDCHAR
STARTCHAR SMALL
ENCODING 107
SWIDTH 500 0
DWIDTH 9 0
BBX 9 18 0 -3
BITMAP
0000
0000
0000
0000
0000
6000
6000
6000
6300
6600
6c00
7c00
7600
6300
6180
0000
0000
0000
ENDCHAR
STARTCHAR SMALL
ENCODING 108
SWIDTH 500 0
DWIDTH 9 0
BBX 9 18 0 -3
BITMAP
0000
0000
0000
0000
0000
1c00
0c00
0c00
0c00
0c00
0c00
0c00
0c00
0c00
3f00
0000
0000
0000
ENDCHAR
STARTCHAR SMALL
ENCODING 109
SWIDTH 500 0
DWIDTH 9 0
BBX 9 18 0 -3
BITMAP
0000
0000
0000
0000
0000
0000
0000
0000
7f00
6d80
6d80
6d80
6d80
6d80
6d80
0000
0000
0000
ENDCHAR
STARTCHAR SMALL
ENCODING 110
SWIDTH 500 0
DWIDTH 9 0
BBX 9 18 0 -3
BITMAP
0000
0000
0000
0000
0000
0000
0000
0000
6f00
7180
6180
6180
6180
6180
6180
0000
0000
0000
ENDCHAR
STARTCHAR SMALL
ENCODING 111
SWIDTH 500 0
DWIDTH 9 0
BBX 9 18 0 -3
BITMAP
0000
0000
0000
0000
0000
0000
0000
0000
1e00
3300
6180
6180
6180
3300
1e00
0000
0000
0000
ENDCHAR
STARTCHAR c70
ENCODING 112
SWIDTH 500 0
DWIDTH 9 0
BBX 9 18 0 -3
BITMAP
0000
0000
0000
0000
0000
0000
0000
0000
6e00
7300
6180
6180
6180
7300
6e00
6000
6000
6000
ENDCHAR
STARTCHAR c71
ENCODING 113
SWIDTH 500 0
DWIDTH 9 0
BBX 9 18 0 -3
BITMAP
0000
0000
0000
0000
0000
0000
0000
0000
1d80
3380
6180
6180
6180
3380
1d80
0180
0180
0180
ENDCHAR
STARTCHAR SMALL
ENCODING 114
SWIDTH 500 0
DWIDTH 9 0
BBX 9 18 0 -3
BITMAP
0000
0000
0000
0000
0000
0000
0000
0000
6f00
7980
7000
6000
6000
6000
6000
0000
0000
0000
ENDCHAR
STARTCHAR SMALL
ENCODING 115
SWIDTH 500 0
DWIDTH 9 0
BBX 9 18 0 -3
BITMAP
0000
0000
0000
0000
0000
0000
0000
0000
3f00
6180
6000
3f00
0180
6180
3f00
0000
0000
0000
ENDCHAR
STARTCHAR SMALL
ENCODING 116
SWIDTH 500 0
DWIDTH 9 0
BBX 9 18 0 -3
BITMAP
0000
0000
0000
0000
0000
0000
0c00
0c00
3f00
0c00
0c00
0c00
0c00
0d80
0700
0000
0000
0000
ENDCHAR
STARTCHAR SMALL
ENCODING 117
SWIDTH 500 0
DWIDTH 9 0
BBX 9 18 0 -3
BITMAP
0000
0000
0000
0000
0000
0000
0000
0000
6180
6180
6180
6180
6180
3380
1d80
0000
0000
0000
ENDCHAR
STARTCHAR SMALL
ENCODING 118
SWIDTH 500 0
DWIDTH 9 0
BBX 9 18 0 -3
BITMAP
0000
0000
0000
0000
0000
0000
0000
0000
6180
6180
3300
3300
1e00
1e00
0c00
0000
0000
0000
ENDCHAR
STARTCHAR SMALL
ENCODING 119
SWIDTH 500 0
DWIDTH 9 0
BBX 9 18 0 -3
BITMAP
0000
0000
0000
0000
0000
0000
0000
0000
6180
6d80
6d80
6d80
6d80
6d80
3b00
0000
0000
0000
ENDCHAR
STARTCHAR SMALL
ENCODING 120
SWIDTH 500 0
DWIDTH 9 0
BBX 9 18 0 -3
BITMAP
0000
0000
0000
0000
0000
0000
0000
0000
6180
3300
1e00
0c00
1e00
3300
6180
0000
0000
0000
ENDCHAR
STARTCHAR SMALL
ENCODING 121
SWIDTH 500 0
DWIDTH 9 0
BBX 9 18 0 -3
BITMAP
0000
0000
0000
0000
0000
0000
0000
0000
6180
6180
6180
6180
6180
2380
1d80
0180
0300
3e00
ENDCHAR
STARTCHAR SMALL
ENCODING 122
SWIDTH 500 0
DWIDTH 9 0
BBX 9 18 0 -3
BITMAP
0000
0000
0000
0000
0000
0000
0000
0000
7f80
0300
0600
0c00
1800
3000
7f80
0000
0000
0000
ENDCHAR
STARTCHAR LEFT
ENCODING 123
SWIDTH 500 0
DWIDTH 9 0
BBX 9 18 0 -3
BITMAP
0000
0000
0000
0000
0600
0c00
0c00
0c00
0c00
1800
1800
0c00
0c00
0c00
0c00
0600
0000
0000
ENDCHAR
STARTCHAR VERTICAL
ENCODING 124
SWIDTH 500 0
DWIDTH 9 0
BBX 9 18 0 -3
BITMAP
0000
0000
0000
0c00
0c00
0c00
0c00
0c00
0c00
0c00
0c00
0c00
0c00
0c00
0c00
0c00
0c00
0000
ENDCHAR
STARTCHAR c7d
ENCODING 125
SWIDTH 500 0
DWIDTH 9 0
BBX 9 18 0 -3
BITMAP
0000
0000
0000
0000
3000
1800
1800
1800
1800
0c00
0c00
1800
1800
1800
1800
3000
0000
0000
ENDCHAR
STARTCHAR TILDE
ENCODING 126
SWIDTH 500 0
DWIDTH 9 0
BBX 9 18 0 -3
BITMAP
0000
0000
0000
0000
0000
3800
6d80
0700
0000
0000
0000
0000
0000
0000
0000
0000
0000
0000
ENDCHAR
STARTCHAR c80
ENCODING 128
SWIDTH 500 0
DWIDTH 9 0
BBX 9 18 0 -3
BITMAP
0000
0000
0000
0000
0000
1e00
3300
6180
6180
6180
7f80
6180
6180
6180
6180
0000
0c00
0c00
ENDCHAR
STARTCHAR c81
ENCODING 129
SWIDTH 500 0
DWIDTH 9 0
BBX 9 18 0 -3
BITMAP
0600
0c00
3300
1e00
0000
1e00
3300
6180
6180
6180
7f80
6180
6180
6180
6180
0000
0000
0000
ENDCHAR
STARTCHAR c82
ENCODING 130
SWIDTH 500 0
DWIDTH 9 0
BBX 9 18 0 -3
BITMAP
1800
0c00
3300
1e00
0000
1e00
3300
6180
6180
6180
7f80
6180
6180
6180
6180
0000
0000
0000
ENDCHAR
STARTCHAR c83
ENCODING 131
SWIDTH 500 0
DWIDTH 9 0
BBX 9 18 0 -3
BITMAP
0000
0000
3300
1e00
0000
1e00
3300
6180
6180
6180
7f80
6180
6180
6180
6180
0000
0c00
0c00
ENDCHAR
STARTCHAR c84
ENCODING 132
SWIDTH 500 0
DWIDTH 9 0
BBX 9 18 0 -3
BITMAP
0000
1800
3000
1e00
3300
1e00
3300
6180
6180
6180
7f80
6180
6180
6180
6180
0000
0000
0000
ENDCHAR
STARTCHAR c85
ENCODING 133
SWIDTH 500 0
DWIDTH 9 0
BBX 9 18 0 -3
BITMAP
0000
0600
0300
1e00
3300
1e00
3300
6180
6180
6180
7f80
6180
6180
6180
6180
0000
0000
0000
ENDCHAR
STARTCHAR c86
ENCODING 134
SWIDTH 500 0
DWIDTH 9 0
BBX 9 18 0 -3
BITMAP
0000
0380
0180
3f00
6600
3c00
6600
c300
c300
c300
ff00
c300
c300
c300
c300
0000
0000
0000
ENDCHAR
STARTCHAR c87
ENCODING 135
SWIDTH 500 0
DWIDTH 9 0
BBX 9 18 0 -3
BITMAP
0000
0000
0000
1e00
3300
1e00
3300
6180
6180
6180
7f80
6180
6180
6180
6180
0000
0c00
0c00
ENDCHAR
STARTCHAR c88
ENCODING 136
SWIDTH 500 0
DWIDTH 9 0
BBX 9 18 0 -3
BITMAP
0000
0000
1d00
2e00
0000
7f80
6000
6000
6000
7f00
6000
6000
6000
6000
7f80
0000
0000
0000
ENDCHAR
STARTCHAR c89
ENCODING 137
SWIDTH 500 0
DWIDTH 9 0
BBX 9 18 0 -3
BITMAP
0000
0000
0000
0000
0000
7f80
6000
6000
6000
7f00
6000
6000
6000
6000
7f80
0000
0c00
0c00
ENDCHAR
STARTCHAR c8a
ENCODING 138
SWIDTH 500 0
DWIDTH 9 0
BBX 9 18 0 -3
BITMAP
1800
3000
1e00
3300
0000
7f80
6000
6000
6000
7f00
6000
6000
6000
6000
7f80
0000
0000
0000
ENDCHAR
STARTCHAR c8b
ENCODING 139
SWIDTH 500 0
DWIDTH 9 0
BBX 9 18 0 -3
BITMAP
0600
0300
1e00
3300
0000
7f80
6000
6000
6000
7f00
6000
6000
6000
6000
7f80
0000
0000
0000
ENDCHAR
STARTCHAR c8c
ENCODING 140
SWIDTH 500 0
DWIDTH 9 0
BBX 9 18 0 -3
BITMAP
0380
0180
3f00
6600
0000
ff00
c000
c000
c000
fe00
c000
c000
c000
c000
ff00
0000
0000
0000
ENDCHAR
STARTCHAR c8d
ENCODING 141
SWIDTH 500 0
DWIDTH 9 0
BBX 9 18 0 -3
BITMAP
1d00
2e00
1e00
3300
0000
7f80
6000
6000
6000
7f00
6000
6000
6000
6000
7f80
0000
0000
0000
ENDCHAR
STARTCHAR c8e
ENCODING 142
SWIDTH 500 0
DWIDTH 9 0
BBX 9 18 0 -3
BITMAP
0000
0000
1e00
3300
0000
7f80
6000
6000
6000
7f00
6000
6000
6000
6000
7f80
0000
0c00
0c00
ENDCHAR
STARTCHAR c8f
ENCODING 143
SWIDTH 500 0
DWIDTH 9 0
BBX 9 18 0 -3
BITMAP
0000
1800
3000
1e00
3300
1e00
3300
6180
6180
6180
6180
6180
6180
3300
1e00
0000
0000
0000
ENDCHAR
STARTCHAR c90
ENCODING 144
SWIDTH 500 0
DWIDTH 9 0
BBX 9 18 0 -3
BITMAP
0000
0000
0000
1e00
3300
1e00
3300
6180
6180
6180
6180
6180
6180
3300
1e00
0000
0000
0000
ENDCHAR
STARTCHAR c91
ENCODING 145
SWIDTH 500 0
DWIDTH 9 0
BBX 9 18 0 -3
BITMAP
0000
0180
0080
1f80
3300
1e00
3300
6180
6180
6180
6180
6180
6180
3300
1e00
0000
0000
0000
ENDCHAR
STARTCHAR c92
ENCODING 146
SWIDTH 500 0
DWIDTH 9 0
BBX 9 18 0 -3
BITMAP
1d00
2e00
0000
1e00
3300
1e00
3300
6180
6180
6180
6180
6180
6180
3300
1e00
0000
0000
0000
ENDCHAR
STARTCHAR c93
ENCODING 147
SWIDTH 500 0
DWIDTH 9 0
BBX 9 18 0 -3
BITMAP
0000
0000
0000
1e00
3300
1e00
3300
6180
6180
6180
6180
6180
6180
3300
1e00
0000
0c00
0c00
ENDCHAR
STARTCHAR c94
ENCODING 148
SWIDTH 500 0
DWIDTH 9 0
BBX 9 18 0 -3
BITMAP
0000
0000
0380
0180
0300
3c00
6600
c300
c300
c300
c300
c300
c300
6600
3c00
0000
0000
0000
ENDCHAR
STARTCHAR c95
ENCODING 149
SWIDTH 500 0
DWIDTH 9 0
BBX 9 18 0 -3
BITMAP
0000
1800
3380
6180
0300
3c00
6600
c300
c300
c300
c300
c300
c300
6600
3c00
0000
0000
0000
ENDCHAR
STARTCHAR c96
ENCODING 150
SWIDTH 500 0
DWIDTH 9 0
BBX 9 18 0 -3
BITMAP
0000
3000
1b80
0d80
0300
3c00
6600
c300
c300
c300
c300
c300
c300
6600
3c00
0000
0000
0000
ENDCHAR
STARTCHAR c97
ENCODING 151
SWIDTH 500 0
DWIDTH 9 0
BBX 9 18 0 -3
BITMAP
0000
3c00
0f80
1980
0300
3c00
6600
c300
c300
c300
c300
c300
c300
6600
3c00
0000
0000
0000
ENDCHAR
STARTCHAR c98
ENCODING 152
SWIDTH 500 0
DWIDTH 9 0
BBX 9 18 0 -3
BITMAP
0000
0000
0000
0000
0000
3f00
0c00
0c00
0c00
0c00
0c00
0c00
0c00
0c00
3f00
0000
0c00
0c00
ENDCHAR
STARTCHAR c99
ENCODING 153
SWIDTH 500 0
DWIDTH 9 0
BBX 9 18 0 -3
BITMAP
0000
1e00
0600
0c00
0000
1e00
3300
6180
6180
6180
6180
6180
6180
3300
1e00
0000
0000
0000
ENDCHAR
STARTCHAR c9a
ENCODING 154
SWIDTH 500 0
DWIDTH 9 0
BBX 9 18 0 -3
BITMAP
0000
0000
0000
0000
0000
1e00
3300
6180
6180
6180
6180
6180
6180
3300
1e00
0000
0c00
0c00
ENDCHAR
STARTCHAR c9b
ENCODING 155
SWIDTH 500 0
DWIDTH 9 0
BBX 9 18 0 -3
BITMAP
0000
1e00
0600
0c00
0000
3f00
0c00
0c00
0c00
0c00
0c00
0c00
0c00
0c00
3f00
0000
0000
0000
ENDCHAR
STARTCHAR c9c
ENCODING 156
SWIDTH 500 0
DWIDTH 9 0
BBX 9 18 0 -3
BITMAP
0000
1e00
0600
0c00
0000
6180
6180
6180
6180
6180
6180
6180
6180
3300
1e00
0000
0000
0000
ENDCHAR
STARTCHAR c9d
ENCODING 157
SWIDTH 500 0
DWIDTH 9 0
BBX 9 18 0 -3
BITMAP
0000
0000
1d00
2e00
0000
6180
6180
6180
6180
6180
6180
6180
6180
3300
1e00
0000
0000
0000
ENDCHAR
STARTCHAR c9e
ENCODING 158
SWIDTH 500 0
DWIDTH 9 0
BBX 9 18 0 -3
BITMAP
0000
0000
0000
0000
0000
6180
6180
6180
6180
6180
6180
6180
6180
3300
1e00
0000
0c00
0c00
ENDCHAR
STARTCHAR c9f
ENCODING 159
SWIDTH 500 0
DWIDTH 9 0
BBX 9 18 0 -3
BITMAP
0000
1800
0c00
0600
0000
6180
6180
3300
1e00
1e00
0c00
0c00
0c00
0c00
0c00
0000
0000
0000
ENDCHAR
STARTCHAR ca0
ENCODING 160
SWIDTH 500 0
DWIDTH 9 0
BBX 9 18 0 -3
BITMAP
0000
0000
1d00
2e00
0000
1e00
3300
6180
6180
6180
6180
6180
6180
3300
1e00
0000
0000
0000
ENDCHAR
STARTCHAR ca1
ENCODING 161
SWIDTH 500 0
DWIDTH 9 0
BBX 9 18 0 -3
BITMAP
0000
0600
0c00
1800
0000
3300
1e00
0000
3f00
6180
0180
3f80
6180
6380
3f80
0000
0000
0000
ENDCHAR
STARTCHAR ca2
ENCODING 162
SWIDTH 500 0
DWIDTH 9 0
BBX 9 18 0 -3
BITMAP
0000
1800
0c00
0600
0000
3300
1e00
0000
3f00
6180
0180
3f80
6180
6380
3f80
0000
0000
0000
ENDCHAR
STARTCHAR ca3
ENCODING 163
SWIDTH 500 0
DWIDTH 9 0
BBX 9 18 0 -3
BITMAP
0000
0000
0000
0000
0000
3300
1e00
0000
3f00
6180
0180
3f80
6180
6380
3f80
0000
0c00
0c00
ENDCHAR
STARTCHAR ca4
ENCODING 164
SWIDTH 500 0
DWIDTH 9 0
BBX 9 18 0 -3
BITMAP
0000
0000
0c00
1800
3000
1e00
3300
0000
3f00
6180
0180
3f80
6180
6380
3f80
0000
0000
0000
ENDCHAR
STARTCHAR ca5
ENCODING 165
SWIDTH 500 0
DWIDTH 9 0
BBX 9 18 0 -3
BITMAP
0000
0000
0c00
0600
0300
1e00
3300
0000
3f00
6180
0180
3f80
6180
6380
3f80
0000
0000
0000
ENDCHAR
STARTCHAR ca6
ENCODING 166
SWIDTH 500 0
DWIDTH 9 0
BBX 9 18 0 -3
BITMAP
0000
1e00
0600
0c00
0000
1e00
3300
0000
3f00
6180
0180
3f80
6180
6380
3f80
0000
0000
0000
ENDCHAR
STARTCHAR ca7
ENCODING 167
SWIDTH 500 0
DWIDTH 9 0
BBX 9 18 0 -3
BITMAP
0000
0000
0000
0000
0000
1e00
3300
0000
3f00
6180
0180
3f80
6180
6380
3f80
0000
0c00
0c00
ENDCHAR
STARTCHAR ca8
ENCODING 168
SWIDTH 500 0
DWIDTH 9 0
BBX 9 18 0 -3
BITMAP
0000
0000
0000
0000
0000
1d00
2e00
0000
3f00
6180
6180
7f80
6000
6180
3f00
0000
0000
0000
ENDCHAR
STARTCHAR ca9
ENCODING 169
SWIDTH 500 0
DWIDTH 9 0
BBX 9 18 0 -3
BITMAP
0000
0000
0000
0000
0000
0000
0000
0000
3f00
6180
6180
7f80
6000
6180
3f00
0000
0c00
0c00
ENDCHAR
STARTCHAR caa
ENCODING 170
SWIDTH 500 0
DWIDTH 9 0
BBX 9 18 0 -3
BITMAP
0000
0000
0c00
1800
3000
1e00
3300
0000
3f00
6180
6180
7f80
6000
6180
3f00
0000
0000
0000
ENDCHAR
STARTCHAR cab
ENCODING 171
SWIDTH 500 0
DWIDTH 9 0
BBX 9 18 0 -3
BITMAP
0000
0000
0c00
0600
0300
1e00
3300
0000
3f00
6180
6180
7f80
6000
6180
3f00
0000
0000
0000
ENDCHAR
STARTCHAR cac
ENCODING 172
SWIDTH 500 0
DWIDTH 9 0
BBX 9 18 0 -3
BITMAP
0000
1e00
0600
0c00
0000
1e00
3300
0000
3f00
6180
6180
7f80
6000
6180
3f00
0000
0000
0000
ENDCHAR
STARTCHAR cad
ENCODING 173
SWIDTH 500 0
DWIDTH 9 0
BBX 9 18 0 -3
BITMAP
0000
0000
1d00
2e00
0000
1e00
3300
0000
3f00
6180
6180
7f80
6000
6180
3f00
0000
0000
0000
ENDCHAR
STARTCHAR cae
ENCODING 174
SWIDTH 500 0
DWIDTH 9 0
BBX 9 18 0 -3
BITMAP
0000
0000
0000
0000
0000
1e00
3300
0000
3f00
6180
6180
7f80
6000
6180
3f00
0000
0c00
0c00
ENDCHAR
STARTCHAR caf
ENCODING 175
SWIDTH 500 0
DWIDTH 9 0
BBX 9 18 0 -3
BITMAP
0000
0000
0c00
1800
3000
1e00
3300
0000
1e00
3300
6180
6180
6180
3300
1e00
0000
0000
0000
ENDCHAR
STARTCHAR cb0
ENCODING 176
SWIDTH 500 0
DWIDTH 9 0
BBX 9 18 0 -3
BITMAP
0000
0000
0c00
0600
0300
1e00
3300
0000
1e00
3300
6180
6180
6180
3300
1e00
0000
0000
0000
ENDCHAR
STARTCHAR cb1
ENCODING 177
SWIDTH 500 0
DWIDTH 9 0
BBX 9 18 0 -3
BITMAP
0000
1e00
0600
0c00
0000
1e00
3300
0000
1e00
3300
6180
6180
6180
3300
1e00
0000
0000
0000
ENDCHAR
STARTCHAR cb2
ENCODING 178
SWIDTH 500 0
DWIDTH 9 0
BBX 9 18 0 -3
BITMAP
0000
0000
1d00
2e00
0000
1e00
3300
0000
1e00
3300
6180
6180
6180
3300
1e00
0000
0000
0000
ENDCHAR
STARTCHAR cb3
ENCODING 179
SWIDTH 500 0
DWIDTH 9 0
BBX 9 18 0 -3
BITMAP
0000
3a00
5f80
0180
0300
3c00
6600
c300
c300
c300
c300
c300
c300
6600
3c00
0000
0000
0000
ENDCHAR
STARTCHAR cb4
ENCODING 180
SWIDTH 500 0
DWIDTH 9 0
BBX 9 18 0 -3
BITMAP
0000
0000
0380
0180
0300
3c00
6600
c300
c300
c300
c300
c300
c300
6600
3c00
0000
0000
0000
ENDCHAR
STARTCHAR cb5
ENCODING 181
SWIDTH 500 0
DWIDTH 9 0
BBX 9 18 0 -3
BITMAP
0000
0000
0000
0000
0000
1e00
3300
0000
1e00
3300
6180
6180
6180
3300
1e00
0000
0c00
0c00
ENDCHAR
STARTCHAR cb6
ENCODING 182
SWIDTH 500 0
DWIDTH 9 0
BBX 9 18 0 -3
BITMAP
0000
0000
0000
3000
1800
0c00
0380
0180
3f00
6600
c300
c300
c300
6600
3c00
0000
0000
0000
ENDCHAR
STARTCHAR cb7
ENCODING 183
SWIDTH 500 0
DWIDTH 9 0
BBX 9 18 0 -3
BITMAP
0000
0000
0000
0000
3c00
0c00
1b80
0180
3f00
6600
c300
c300
c300
6600
3c00
0000
0000
0000
ENDCHAR
STARTCHAR cb8
ENCODING 184
SWIDTH 500 0
DWIDTH 9 0
BBX 9 18 0 -3
BITMAP
0000
0000
0000
0000
0000
0c00
0c00
0000
1c00
0c00
0c00
0c00
0c00
0c00
3f00
0000
0c00
0c00
ENDCHAR
STARTCHAR cb9
ENCODING 185
SWIDTH 500 0
DWIDTH 9 0
BBX 9 18 0 -3
BITMAP
0000
0000
0380
0180
0300
c000
c300
c300
c300
c300
c300
c300
c300
6600
3c00
0000
1800
1800
ENDCHAR
STARTCHAR cba
ENCODING 186
SWIDTH 500 0
DWIDTH 9 0
BBX 9 18 0 -3
BITMAP
0000
1800
3380
6180
0300
c000
c300
c300
c300
c300
c300
c300
c300
6600
3c00
0000
0000
0000
ENDCHAR
STARTCHAR cbb
ENCODING 187
SWIDTH 500 0
DWIDTH 9 0
BBX 9 18 0 -3
BITMAP
0000
3000
1b80
0d80
0300
c000
c300
c300
c300
c300
c300
c300
c300
6600
3c00
0000
0000
0000
ENDCHAR
STARTCHAR cbc
ENCODING 188
SWIDTH 500 0
DWIDTH 9 0
BBX 9 18 0 -3
BITMAP
0000
3c00
0f80
1980
0300
c000
c300
c300
c300
c300
c300
c300
c300
6600
3c00
0000
0000
0000
ENDCHAR
STARTCHAR cbd
ENCODING 189
SWIDTH 500 0
DWIDTH 9 0
BBX 9 18 0 -3
BITMAP
0000
0000
0000
0000
0000
0380
0180
0300
1e00
3300
6180
6180
6180
3300
1e00
0000
0000
0000
ENDCHAR
STARTCHAR cbe
ENCODING 190
SWIDTH 500 0
DWIDTH 9 0
BBX 9 18 0 -3
BITMAP
0000
0000
0000
0000
0c00
1b80
3180
0300
1e00
3300
6180
6180
6180
3300
1e00
0000
0000
0000
ENDCHAR
STARTCHAR cbf
ENCODING 191
SWIDTH 500 0
DWIDTH 9 0
BBX 9 18 0 -3
BITMAP
0000
0380
0180
0300
0000
c300
c300
c300
c300
c300
c300
c300
c300
6600
3c00
0000
0000
0000
ENDCHAR
STARTCHAR cc0
ENCODING 192
SWIDTH 500 0
DWIDTH 9 0
BBX 9 18 0 -3
BITMAP
0000
1800
0c00
0600
0000
1e00
3300
6180
6180
6180
7f80
6180
6180
6180
6180
0000
0000
0000
ENDCHAR
STARTCHAR cc1
ENCODING 193
SWIDTH 500 0
DWIDTH 9 0
BBX 9 18 0 -3
BITMAP
0000
0600
0c00
1800
0000
1e00
3300
6180
6180
6180
7f80
6180
6180
6180
6180
0000
0000
0000
ENDCHAR
STARTCHAR cc2
ENCODING 194
SWIDTH 500 0
DWIDTH 9 0
BBX 9 18 0 -3
BITMAP
0000
0000
0000
1e00
3300
1e00
3300
6180
6180
6180
7f80
6180
6180
6180
6180
0000
0000
0000
ENDCHAR
STARTCHAR cc3
ENCODING 195
SWIDTH 500 0
DWIDTH 9 0
BBX 9 18 0 -3
BITMAP
0000
0000
1d00
2e00
0000
1e00
3300
6180
6180
6180
7f80
6180
6180
6180
6180
0000
0000
0000
ENDCHAR
STARTCHAR cc4
ENCODING 196
SWIDTH 500 0
DWIDTH 9 0
BBX 9 18 0 -3
BITMAP
0000
1e00
0600
0c00
0000
1e00
3300
6180
6180
6180
7f80
6180
6180
6180
6180
0000
0000
0000
ENDCHAR
STARTCHAR cc5
ENCODING 197
SWIDTH 500 0
DWIDTH 9 0
BBX 9 18 0 -3
BITMAP
0000
0000
3300
1e00
0000
1e00
3300
6180
6180
6180
7f80
6180
6180
6180
6180
0000
0000
0000
ENDCHAR
STARTCHAR cc6
ENCODING 198
SWIDTH 500 0
DWIDTH 9 0
BBX 9 18 0 -3
BITMAP
0000
0000
1e00
0600
0c00
3300
1e00
0000
3f00
6180
0180
3f80
6180
6380
3f80
0000
0000
0000
ENDCHAR
STARTCHAR cc7
ENCODING 199
SWIDTH 500 0
DWIDTH 9 0
BBX 9 18 0 -3
BITMAP
0000
0000
1d00
2e00
0000
3300
1e00
0000
3f00
6180
0180
3f80
6180
6380
3f80
0000
0000
0000
ENDCHAR
STARTCHAR cc8
ENCODING 200
SWIDTH 500 0
DWIDTH 9 0
BBX 9 18 0 -3
BITMAP
0000
1800
0c00
0600
0000
7f80
6000
6000
6000
7f00
6000
6000
6000
6000
7f80
0000
0000
0000
ENDCHAR
STARTCHAR cc9
ENCODING 201
SWIDTH 500 0
DWIDTH 9 0
BBX 9 18 0 -3
BITMAP
0000
0600
0c00
1800
0000
7f80
6000
6000
6000
7f00
6000
6000
6000
6000
7f80
0000
0000
0000
ENDCHAR
STARTCHAR cca
ENCODING 202
SWIDTH 500 0
DWIDTH 9 0
BBX 9 18 0 -3
BITMAP
0000
0000
1e00
3300
0000
7f80
6000
6000
6000
7f00
6000
6000
6000
6000
7f80
0000
0000
0000
ENDCHAR
STARTCHAR ccb
ENCODING 203
SWIDTH 500 0
DWIDTH 9 0
BBX 9 18 0 -3
BITMAP
0000
1e00
0600
0c00
0000
7f80
6000
6000
6000
7f00
6000
6000
6000
6000
7f80
0000
0000
0000
ENDCHAR
STARTCHAR ccc
ENCODING 204
SWIDTH 500 0
DWIDTH 9 0
BBX 9 18 0 -3
BITMAP
0000
1800
0c00
0600
0000
3f00
0c00
0c00
0c00
0c00
0c00
0c00
0c00
0c00
3f00
0000
0000
0000
ENDCHAR
STARTCHAR ccd
ENCODING 205
SWIDTH 500 0
DWIDTH 9 0
BBX 9 18 0 -3
BITMAP
0000
0600
0c00
1800
0000
3f00
0c00
0c00
0c00
0c00
0c00
0c00
0c00
0c00
3f00
0000
0000
0000
ENDCHAR
STARTCHAR cce
ENCODING 206
SWIDTH 500 0
DWIDTH 9 0
BBX 9 18 0 -3
BITMAP
0000
0000
1d00
2e00
0000
3f00
0c00
0c00
0c00
0c00
0c00
0c00
0c00
0c00
3f00
0000
0000
0000
ENDCHAR
STARTCHAR ccf
ENCODING 207
SWIDTH 500 0
DWIDTH 9 0
BBX 9 18 0 -3
BITMAP
0000
0000
0000
0000
1800
0c00
0600
0000
6180
6180
6180
6180
6180
3380
1f80
0180
0300
3e00
ENDCHAR
STARTCHAR cd0
ENCODING 208
SWIDTH 500 0
DWIDTH 9 0
BBX 9 18 0 -3
BITMAP
0000
0000
0000
0000
0000
7e00
6300
6180
6180
f980
6180
6180
6180
6300
7e00
0000
0000
0000
ENDCHAR
STARTCHAR cd1
ENCODING 209
SWIDTH 500 0
DWIDTH 9 0
BBX 9 18 0 -3
BITMAP
0000
0000
0c00
1800
3380
0180
0300
0000
c300
c300
c300
c300
c300
6700
3f00
0000
0000
0000
ENDCHAR
STARTCHAR cd2
ENCODING 210
SWIDTH 500 0
DWIDTH 9 0
BBX 9 18 0 -3
BITMAP
0000
1800
0c00
0600
0000
1e00
3300
6180
6180
6180
6180
6180
6180
3300
1e00
0000
0000
0000
ENDCHAR
STARTCHAR cd3
ENCODING 211
SWIDTH 500 0
DWIDTH 9 0
BBX 9 18 0 -3
BITMAP
0000
0600
0c00
1800
0000
1e00
3300
6180
6180
6180
6180
6180
6180
3300
1e00
0000
0000
0000
ENDCHAR
STARTCHAR cd4
ENCODING 212
SWIDTH 500 0
DWIDTH 9 0
BBX 9 18 0 -3
BITMAP
0000
0000
0000
1e00
3300
1e00
3300
6180
6180
6180
6180
6180
6180
3300
1e00
0000
0000
0000
ENDCHAR
STARTCHAR cd5
ENCODING 213
SWIDTH 500 0
DWIDTH 9 0
BBX 9 18 0 -3
BITMAP
0000
0000
0000
0000
0000
0000
0000
0000
3f00
6180
0180
3f80
6180
6380
3f80
0000
0c00
0c00
ENDCHAR
STARTCHAR cd6
ENCODING 214
SWIDTH 500 0
DWIDTH 9 0
BBX 9 18 0 -3
BITMAP
0000
0000
0000
0000
1e00
0600
0c00
0000
6180
6180
6180
6180
6180
3380
1f80
0180
0300
3e00
ENDCHAR
STARTCHAR cd7
ENCODING 215
SWIDTH 500 0
DWIDTH 9 0
BBX 9 18 0 -3
BITMAP
0000
0000
3000
1800
0f80
0180
0300
0000
c300
c300
c300
c300
c300
6700
3f00
0000
0000
0000
ENDCHAR
STARTCHAR cd8
ENCODING 216
SWIDTH 500 0
DWIDTH 9 0
BBX 9 18 0 -3
BITMAP
0000
0000
3c00
0c00
1b80
0180
0300
0000
c300
c300
c300
c300
c300
6700
3f00
0000
0000
0000
ENDCHAR
STARTCHAR cd9
ENCODING 217
SWIDTH 500 0
DWIDTH 9 0
BBX 9 18 0 -3
BITMAP
0000
1800
0c00
0600
0000
6180
6180
6180
6180
6180
6180
6180
6180
3300
1e00
0000
0000
0000
ENDCHAR
STARTCHAR cda
ENCODING 218
SWIDTH 500 0
DWIDTH 9 0
BBX 9 18 0 -3
BITMAP
0000
0600
0c00
1800
0000
6180
6180
6180
6180
6180
6180
6180
6180
3300
1e00
0000
0000
0000
ENDCHAR
STARTCHAR cdb
ENCODING 219
SWIDTH 500 0
DWIDTH 9 0
BBX 9 18 0 -3
BITMAP
0000
0000
0000
0000
0000
1d00
2e00
0000
6180
6180
6180
6180
6180
3380
1f80
0180
0300
3e00
ENDCHAR
STARTCHAR cdc
ENCODING 220
SWIDTH 500 0
DWIDTH 9 0
BBX 9 18 0 -3
BITMAP
0000
0000
0000
0000
0000
0000
0000
0000
6180
6180
6180
6180
6180
3380
1f80
0180
0300
3f80
ENDCHAR
STARTCHAR cdd
ENCODING 221
SWIDTH 500 0
DWIDTH 9 0
BBX 9 18 0 -3
BITMAP
0000
0600
0c00
1800
0000
6180
6180
3300
1e00
1e00
0c00
0c00
0c00
0c00
0c00
0000
0000
0000
ENDCHAR
STARTCHAR cde
ENCODING 222
SWIDTH 500 0
DWIDTH 9 0
BBX 9 18 0 -3
BITMAP
0000
0000
1d00
2e00
0000
0380
0180
0300
1e00
3300
6180
6180
6180
3300
1e00
0000
0000
0000
ENDCHAR
STARTCHAR cdf
ENCODING 223
SWIDTH 500 0
DWIDTH 9 0
BBX 9 18 0 -3
BITMAP
0000
0000
0000
0000
0380
0180
0300
0000
c300
c300
c300
c300
c300
6700
3f00
0000
0000
0000
ENDCHAR
STARTCHAR ce0
ENCODING 224
SWIDTH 500 0
DWIDTH 9 0
BBX 9 18 0 -3
BITMAP
0000
0000
0000
0000
1800
0c00
0600
0000
3f00
6180
0180
3f80
6180
6380
3f80
0000
0000
0000
ENDCHAR
STARTCHAR ce1
ENCODING 225
SWIDTH 500 0
DWIDTH 9 0
BBX 9 18 0 -3
BITMAP
0000
0000
0000
0000
0600
0c00
1800
0000
3f00
6180
0180
3f80
6180
6380
3f80
0000
0000
0000
ENDCHAR
STARTCHAR ce2
ENCODING 226
SWIDTH 500 0
DWIDTH 9 0
BBX 9 18 0 -3
BITMAP
0000
0000
0000
0000
0000
1e00
3300
0000
3f00
6180
0180
3f80
6180
6380
3f80
0000
0000
0000
ENDCHAR
STARTCHAR ce3
ENCODING 227
SWIDTH 500 0
DWIDTH 9 0
BBX 9 18 0 -3
BITMAP
0000
0000
0000
0000
0000
1d00
2e00
0000
3f00
6180
0180
3f80
6180
6380
3f80
0000
0000
0000
ENDCHAR
STARTCHAR ce4
ENCODING 228
SWIDTH 500 0
DWIDTH 9 0
BBX 9 18 0 -3
BITMAP
0000
0000
0000
0000
1e00
0600
0c00
0000
3f00
6180
0180
3f80
6180
6380
3f80
0000
0000
0000
ENDCHAR
STARTCHAR ce5
ENCODING 229
SWIDTH 500 0
DWIDTH 9 0
BBX 9 18 0 -3
BITMAP
0000
0000
0000
0000
0000
3300
1e00
0000
3f00
6180
0180
3f80
6180
6380
3f80
0000
0000
0000
ENDCHAR
STARTCHAR ce6
ENCODING 230
SWIDTH 500 0
DWIDTH 9 0
BBX 9 18 0 -3
BITMAP
0000
0000
3a00
5c00
0380
0180
0300
0000
c300
c300
c300
c300
c300
6700
3f00
0000
0000
0000
ENDCHAR
STARTCHAR ce7
ENCODING 231
SWIDTH 500 0
DWIDTH 9 0
BBX 9 18 0 -3
BITMAP
0000
0000
1d00
2e00
0000
1e00
3300
0000
3f00
6180
0180
3f80
6180
6380
3f80
0000
0000
0000
ENDCHAR
STARTCHAR ce8
ENCODING 232
SWIDTH 500 0
DWIDTH 9 0
BBX 9 18 0 -3
BITMAP
0000
0000
0000
0000
1800
0c00
0600
0000
3f00
6180
6180
7f80
6000
6180
3f00
0000
0000
0000
ENDCHAR
STARTCHAR ce9
ENCODING 233
SWIDTH 500 0
DWIDTH 9 0
BBX 9 18 0 -3
BITMAP
0000
0000
0000
0000
0600
0c00
1800
0000
3f00
6180
6180
7f80
6000
6180
3f00
0000
0000
0000
ENDCHAR
STARTCHAR cea
ENCODING 234
SWIDTH 500 0
DWIDTH 9 0
BBX 9 18 0 -3
BITMAP
0000
0000
0000
0000
0000
1e00
3300
0000
3f00
6180
6180
7f80
6000
6180
3f00
0000
0000
0000
ENDCHAR
STARTCHAR ceb
ENCODING 235
SWIDTH 500 0
DWIDTH 9 0
BBX 9 18 0 -3
BITMAP
0000
0000
0000
0000
1e00
0600
0c00
0000
3f00
6180
6180
7f80
6000
6180
3f00
0000
0000
0000
ENDCHAR
STARTCHAR cec
ENCODING 236
SWIDTH 500 0
DWIDTH 9 0
BBX 9 18 0 -3
BITMAP
0000
0000
0000
0000
1800
0c00
0600
0000
1c00
0c00
0c00
0c00
0c00
0c00
3f00
0000
0000
0000
ENDCHAR
STARTCHAR ced
ENCODING 237
SWIDTH 500 0
DWIDTH 9 0
BBX 9 18 0 -3
BITMAP
0000
0000
0000
0000
0600
0c00
1800
0000
1c00
0c00
0c00
0c00
0c00
0c00
3f00
0000
0000
0000
ENDCHAR
STARTCHAR cee
ENCODING 238
SWIDTH 500 0
DWIDTH 9 0
BBX 9 18 0 -3
BITMAP
0000
0000
0000
0000
0000
1d00
2e00
0000
1c00
0c00
0c00
0c00
0c00
0c00
3f00
0000
0000
0000
ENDCHAR
STARTCHAR cef
ENCODING 239
SWIDTH 500 0
DWIDTH 9 0
BBX 9 18 0 -3
BITMAP
0000
0000
0000
0000
1e00
0600
0c00
0000
1c00
0c00
0c00
0c00
0c00
0c00
3f00
0000
0000
0000
ENDCHAR
STARTCHAR cf0
ENCODING 240
SWIDTH 500 0
DWIDTH 9 0
BBX 9 18 0 -3
BITMAP
0000
0000
0000
0000
0000
0300
0f80
0300
3f00
6700
c300
c300
c300
6700
3f00
0000
0000
0000
ENDCHAR
STARTCHAR cf1
ENCODING 241
SWIDTH 500 0
DWIDTH 9 0
BBX 9 18 0 -3
BITMAP
0000
0000
0000
0000
0380
0180
0300
0000
c300
c300
c300
c300
c300
6700
3f00
0000
1800
1800
ENDCHAR
STARTCHAR cf2
ENCODING 242
SWIDTH 500 0
DWIDTH 9 0
BBX 9 18 0 -3
BITMAP
0000
0000
0000
0000
1800
0c00
0600
0000
1e00
3300
6180
6180
6180
3300
1e00
0000
0000
0000
ENDCHAR
STARTCHAR cf3
ENCODING 243
SWIDTH 500 0
DWIDTH 9 0
BBX 9 18 0 -3
BITMAP
0000
0000
0000
0000
0600
0c00
1800
0000
1e00
3300
6180
6180
6180
3300
1e00
0000
0000
0000
ENDCHAR
STARTCHAR cf4
ENCODING 244
SWIDTH 500 0
DWIDTH 9 0
BBX 9 18 0 -3
BITMAP
0000
0000
0000
0000
0000
1e00
3300
0000
1e00
3300
6180
6180
6180
3300
1e00
0000
0000
0000
ENDCHAR
STARTCHAR cf5
ENCODING 245
SWIDTH 500 0
DWIDTH 9 0
BBX 9 18 0 -3
BITMAP
0000
0000
0000
0000
0000
1d00
2e00
0000
1e00
3300
6180
6180
6180
3300
1e00
0000
0000
0000
ENDCHAR
STARTCHAR cf6
ENCODING 246
SWIDTH 500 0
DWIDTH 9 0
BBX 9 18 0 -3
BITMAP
0000
0000
0000
0000
1e00
0600
0c00
0000
1e00
3300
6180
6180
6180
3300
1e00
0000
0000
0000
ENDCHAR
STARTCHAR cf7
ENCODING 247
SWIDTH 500 0
DWIDTH 9 0
BBX 9 18 0 -3
BITMAP
0000
0000
0000
0000
0000
0000
0000
0000
1e00
3300
6180
6180
6180
3300
1e00
0000
0c00
0c00
ENDCHAR
STARTCHAR cf8
ENCODING 248
SWIDTH 500 0
DWIDTH 9 0
BBX 9 18 0 -3
BITMAP
0000
0000
0000
0000
0000
0000
0000
0000
6180
6180
6180
6180
6180
3380
1f80
0000
0c00
0c00
ENDCHAR
STARTCHAR cf9
ENCODING 249
SWIDTH 500 0
DWIDTH 9 0
BBX 9 18 0 -3
BITMAP
0000
0000
0000
0000
1800
0c00
0600
0000
6180
6180
6180
6180
6180
3380
1f80
0000
0000
0000
ENDCHAR
STARTCHAR cfa
ENCODING 250
SWIDTH 500 0
DWIDTH 9 0
BBX 9 18 0 -3
BITMAP
0000
0000
0000
0000
0600
0c00
1800
0000
6180
6180
6180
6180
6180
3380
1f80
0000
0000
0000
ENDCHAR
STARTCHAR cfb
ENCODING 251
SWIDTH 500 0
DWIDTH 9 0
BBX 9 18 0 -3
BITMAP
0000
0000
0000
0000
0000
1e00
3300
0000
6180
6180
6180
6180
6180
3380
1f80
0000
0000
0000
ENDCHAR
STARTCHAR cfc
ENCODING 252
SWIDTH 500 0
DWIDTH 9 0
BBX 9 18 0 -3
BITMAP
0000
0000
0000
0000
1e00
0600
0c00
0000
6180
6180
6180
6180
6180
3380
1f80
0000
0000
0000
ENDCHAR
STARTCHAR cfd
ENCODING 253
SWIDTH 500 0
DWIDTH 9 0
BBX 9 18 0 -3
BITMAP
0000
0000
0000
0000
0600
0c00
1800
0000
6180
6180
6180
6180
6180
3380
1f80
0180
0300
3e00
ENDCHAR
STARTCHAR cfe
ENCODING 254
SWIDTH 500 0
DWIDTH 9 0
BBX 9 18 0 -3
BITMAP
0000
0000
0000
0000
0000
0380
0180
0300
1e00
3300
6180
6180
6180
3300
1e00
0000
0c00
0c00
ENDCHAR
STARTCHAR cff
ENCODING 255
SWIDTH 500 0
DWIDTH 9 0
BBX 9 18 0 -3
BITMAP
3a00
5f80
0180
0300
0000
c300
c300
c300
c300
c300
c300
c300
c300
6600
3c00
0000
0000
0000
ENDCHAR
ENDFONT
